<svg xmlns="http://www.w3.org/2000/svg" xmlns:xlink="http://www.w3.org/1999/xlink" width="340" zoomAndPan="magnify" viewBox="0 0 255 155.999994" height="208" preserveAspectRatio="xMidYMid meet" version="1.0"><defs><clipPath id="7dba6b5a04"><path d="M 0 0 L 254.882812 0 L 254.882812 155.929688 L 0 155.929688 Z M 0 0 " clip-rule="nonzero"/></clipPath><clipPath id="ec54fe68f7"><path d="M 98.75 92 L 99 92 L 99 94 L 98.75 94 Z M 98.75 92 " clip-rule="nonzero"/></clipPath><clipPath id="df4d091a01"><path d="M 98.75 50.117188 L 156 50.117188 L 156 112.339844 L 98.75 112.339844 Z M 98.75 50.117188 " clip-rule="nonzero"/></clipPath></defs><g clip-path="url(#7dba6b5a04)"><path fill="#ffffff" d="M 0 0 L 254.882812 0 L 254.882812 155.929688 L 0 155.929688 Z M 0 0 " fill-opacity="1" fill-rule="nonzero"/><path fill="#f9f2ef" d="M 0 0 L 254.882812 0 L 254.882812 155.929688 L 0 155.929688 Z M 0 0 " fill-opacity="1" fill-rule="nonzero"/></g><path fill="#9b4226" d="M 101.546875 107.902344 C 101.546875 107.90625 101.542969 107.90625 101.542969 107.90625 C 101.542969 107.902344 101.535156 107.902344 101.535156 107.902344 L 101.542969 107.910156 L 101.546875 107.90625 C 101.546875 107.90625 101.546875 107.90625 101.546875 107.902344 Z M 101.546875 107.902344 " fill-opacity="1" fill-rule="nonzero"/><g clip-path="url(#ec54fe68f7)"><path fill="#9b4226" d="M 98.75 92.992188 C 98.753906 92.996094 98.761719 93.003906 98.765625 93.007812 C 98.773438 93.011719 98.777344 93.019531 98.78125 93.023438 C 98.769531 93.011719 98.761719 93 98.75 92.992188 Z M 98.75 92.992188 " fill-opacity="1" fill-rule="nonzero"/></g><path fill="#9b4226" d="M 103.773438 109.164062 C 103.769531 109.175781 103.765625 109.1875 103.761719 109.195312 C 103.753906 109.25 103.75 109.300781 103.742188 109.351562 C 103.742188 109.351562 103.738281 109.347656 103.738281 109.347656 C 103.738281 109.351562 103.738281 109.359375 103.742188 109.363281 L 103.746094 109.359375 C 103.75 109.304688 103.757812 109.253906 103.765625 109.199219 C 103.765625 109.199219 103.761719 109.199219 103.761719 109.195312 C 103.761719 109.199219 103.765625 109.199219 103.765625 109.199219 C 103.769531 109.1875 103.773438 109.175781 103.773438 109.164062 Z M 103.773438 109.164062 " fill-opacity="1" fill-rule="nonzero"/><path fill="#9b4226" d="M 137.699219 55.21875 C 137.703125 55.21875 137.710938 55.222656 137.714844 55.222656 L 137.710938 55.210938 C 137.710938 55.210938 137.707031 55.210938 137.707031 55.210938 C 137.703125 55.214844 137.703125 55.214844 137.699219 55.21875 Z M 137.699219 55.21875 " fill-opacity="1" fill-rule="nonzero"/><path fill="#9b4226" d="M 100.238281 103.109375 C 100.25 103.085938 100.261719 103.066406 100.273438 103.042969 C 100.257812 103.0625 100.242188 103.085938 100.226562 103.105469 Z M 100.238281 103.109375 " fill-opacity="1" fill-rule="nonzero"/><g clip-path="url(#df4d091a01)"><path fill="#9b4226" d="M 155.878906 89.84375 C 155.835938 89.679688 155.835938 89.5 155.824219 89.328125 C 155.660156 86.574219 155.523438 83.816406 155.316406 81.066406 C 155.269531 80.414062 155.089844 79.738281 154.820312 79.144531 C 154.535156 78.523438 154.085938 77.976562 153.675781 77.417969 C 153.347656 76.972656 146.894531 70.222656 146.300781 70.105469 C 146.734375 69.300781 146.644531 68.898438 145.921875 68.304688 C 145.886719 68.277344 145.851562 68.238281 145.835938 68.195312 C 145.644531 67.613281 145.441406 67.035156 145.269531 66.445312 C 145.078125 65.792969 145.046875 65.71875 144.394531 65.914062 C 143.597656 66.15625 142.832031 66.492188 142.046875 66.78125 C 141.953125 66.8125 141.792969 66.84375 141.746094 66.796875 C 140.921875 65.929688 140.089844 65.058594 139.925781 63.785156 C 139.964844 63.777344 140.03125 63.769531 140.03125 63.769531 C 139.917969 63.417969 139.800781 63.078125 139.699219 62.738281 C 139.648438 62.558594 139.554688 62.359375 139.589844 62.191406 C 139.6875 61.691406 139.417969 61.320312 139.226562 60.914062 C 139.21875 60.898438 139.222656 60.882812 139.21875 60.859375 C 139.269531 60.839844 139.316406 60.820312 139.398438 60.789062 C 139.265625 60.542969 139.128906 60.3125 139.019531 60.070312 C 138.867188 59.738281 138.613281 59.390625 138.632812 59.0625 C 138.648438 58.722656 138.539062 58.46875 138.4375 58.1875 C 138.421875 58.144531 138.441406 58.089844 138.433594 58.042969 C 138.398438 57.789062 138.394531 57.523438 138.308594 57.285156 C 138.074219 56.625 137.804688 55.976562 137.550781 55.324219 C 137.542969 55.304688 137.546875 55.285156 137.546875 55.265625 C 137.601562 55.25 137.652344 55.230469 137.707031 55.214844 C 137.578125 55.035156 137.441406 54.863281 137.324219 54.675781 C 137.242188 54.550781 137.203125 54.390625 137.113281 54.269531 C 136.691406 53.734375 136.257812 53.210938 135.828125 52.683594 C 135.757812 52.589844 135.695312 52.488281 135.601562 52.347656 C 135.746094 52.398438 135.824219 52.429688 135.894531 52.457031 C 135.492188 52.105469 135.066406 51.777344 134.691406 51.398438 C 134.203125 50.902344 133.628906 50.652344 132.933594 50.679688 C 132.84375 50.683594 132.734375 50.664062 132.664062 50.617188 C 132.226562 50.335938 131.765625 50.328125 131.273438 50.429688 C 131.121094 50.460938 130.9375 50.433594 130.785156 50.382812 C 130.296875 50.210938 129.792969 50.121094 129.324219 50.351562 C 128.769531 50.625 128.253906 50.96875 127.765625 51.257812 C 127.484375 51.234375 127.179688 51.132812 126.917969 51.199219 C 126.449219 51.320312 126 51.53125 125.550781 51.71875 C 125.421875 51.773438 125.300781 51.867188 125.203125 51.96875 C 125.019531 52.164062 124.859375 52.378906 124.761719 52.496094 C 124.472656 52.589844 124.269531 52.65625 124.066406 52.71875 C 124.007812 52.738281 123.941406 52.769531 123.886719 52.753906 C 123.09375 52.570312 122.484375 52.882812 122.207031 53.648438 C 122.125 53.882812 122.089844 54.132812 122.023438 54.40625 C 121.9375 54.296875 121.867188 54.203125 121.734375 54.03125 C 121.800781 54.222656 121.832031 54.316406 121.871094 54.429688 C 121.535156 54.414062 121.320312 54.238281 121.207031 53.953125 C 120.964844 53.339844 121.246094 52.917969 121.828125 52.574219 C 121.089844 52.660156 120.753906 53.273438 120.695312 54.417969 C 120.628906 54.203125 120.566406 53.988281 120.488281 53.734375 C 120.308594 54.492188 120.546875 55.113281 120.9375 55.660156 C 120.699219 55.984375 120.484375 56.277344 120.1875 56.683594 C 120.152344 56.253906 120.125 55.921875 120.097656 55.597656 C 120.097656 55.582031 120.070312 55.578125 120.0625 55.59375 C 120.015625 55.734375 119.914062 56.046875 119.96875 56.179688 C 120.230469 56.800781 119.78125 57.292969 119.695312 57.867188 C 119.578125 57.4375 119.457031 57.007812 119.328125 56.550781 C 119.324219 56.539062 119.308594 56.539062 119.300781 56.550781 C 118.992188 57.363281 119.210938 58.09375 119.4375 58.847656 C 119.328125 58.695312 119.214844 58.542969 119.0625 58.339844 C 119.109375 58.605469 119.144531 58.808594 119.179688 59.011719 C 119.066406 58.902344 119 58.773438 118.945312 58.636719 C 118.898438 58.507812 118.863281 58.371094 118.820312 58.238281 C 118.730469 58.265625 118.945312 59.285156 119.074219 59.777344 C 119.019531 59.75 118.933594 59.707031 118.84375 59.664062 C 118.832031 59.683594 118.824219 59.703125 118.8125 59.71875 L 119.378906 60.148438 L 119.371094 60.148438 C 119.371094 60.171875 119.371094 60.195312 119.371094 60.21875 L 119.375 60.21875 C 119.644531 60.296875 119.917969 60.367188 120.183594 60.453125 C 120.246094 60.472656 120.289062 60.542969 120.339844 60.59375 C 120.390625 60.613281 120.445312 60.632812 120.496094 60.648438 C 120.492188 60.65625 120.488281 60.660156 120.484375 60.664062 C 120.480469 60.671875 120.480469 60.679688 120.480469 60.691406 C 120.488281 60.6875 120.496094 60.6875 120.503906 60.6875 C 120.542969 61.414062 120.582031 62.15625 120.621094 62.890625 C 120.277344 62.898438 119.878906 62.835938 119.574219 62.417969 C 119.277344 62.011719 118.796875 61.921875 118.3125 61.882812 C 118.078125 61.863281 117.835938 61.820312 117.625 61.726562 C 117.191406 61.542969 116.765625 61.492188 116.347656 61.722656 C 116.074219 61.875 115.835938 61.863281 115.601562 61.675781 C 115.328125 61.457031 115.058594 61.484375 114.765625 61.632812 C 114.691406 61.671875 114.554688 61.675781 114.484375 61.636719 C 114.226562 61.480469 113.992188 61.523438 113.800781 61.71875 C 113.636719 61.894531 113.488281 61.894531 113.292969 61.800781 C 112.398438 61.371094 111.582031 61.484375 110.824219 62.128906 C 110.71875 62.222656 110.558594 62.289062 110.417969 62.296875 C 109.933594 62.324219 109.5625 62.53125 109.222656 62.867188 C 108.964844 63.121094 108.652344 63.316406 108.375 63.554688 C 108.203125 63.699219 108.039062 63.863281 107.890625 64.035156 C 107.75 64.191406 107.660156 64.414062 107.496094 64.527344 C 106.761719 65.042969 106.273438 65.757812 105.757812 66.46875 C 105.117188 67.347656 104.648438 68.292969 104.398438 69.34375 C 104.199219 70.167969 103.929688 70.957031 103.550781 71.726562 C 102.984375 72.875 102.570312 74.09375 102.441406 75.378906 C 102.328125 76.492188 102.328125 77.621094 102.132812 78.710938 C 101.929688 79.847656 101.953125 80.921875 102.214844 82.046875 C 102.363281 82.671875 102.1875 83.367188 102.210938 84.027344 C 102.25 85.148438 102.007812 86.199219 101.550781 87.21875 C 101.078125 88.269531 100.65625 89.339844 100.207031 90.402344 C 99.953125 91.003906 99.730469 91.621094 99.429688 92.203125 C 99.273438 92.5 98.984375 92.730469 98.753906 92.988281 C 98.859375 92.964844 98.984375 92.972656 99.058594 92.914062 C 99.300781 92.726562 99.523438 92.515625 99.785156 92.289062 C 99.503906 93.492188 98.949219 94.59375 98.988281 95.882812 C 99.175781 95.492188 99.339844 95.152344 99.484375 94.851562 C 99.636719 95.378906 99.796875 95.921875 99.957031 96.464844 C 100.011719 96.453125 99.992188 96.457031 100.046875 96.449219 C 100.042969 96.355469 100.035156 96.265625 100.027344 96.125 C 100.132812 96.265625 100.210938 96.371094 100.289062 96.472656 C 100.027344 95.765625 100.042969 95.058594 100.355469 94.367188 C 100.492188 94.0625 100.675781 93.777344 100.832031 93.480469 C 101.265625 92.664062 101.703125 91.84375 102.140625 91.023438 C 102.050781 91.210938 102.003906 91.433594 101.953125 91.652344 C 101.726562 92.613281 101.480469 93.574219 101.277344 94.542969 C 101.214844 94.84375 101.207031 95.183594 101.277344 95.484375 C 101.394531 96.003906 101.636719 96.5 101.734375 97.027344 C 102.085938 98.871094 101.828125 100.601562 100.710938 102.167969 C 100.527344 102.429688 100.410156 102.746094 100.273438 103.042969 C 100.386719 102.878906 100.503906 102.714844 100.621094 102.550781 C 100.578125 102.726562 100.53125 102.898438 100.496094 103.074219 C 100.429688 103.402344 100.367188 103.730469 100.308594 104.0625 C 100.308594 104.0625 100.304688 104.058594 100.300781 104.058594 C 100.488281 104.75 100.679688 105.4375 100.859375 106.132812 C 100.921875 106.378906 100.996094 106.640625 100.976562 106.890625 C 100.960938 107.070312 100.832031 107.339844 100.6875 107.394531 C 100.527344 107.453125 100.292969 107.3125 100.09375 107.257812 L 100.101562 107.261719 C 100.128906 107.386719 100.15625 107.507812 100.1875 107.660156 C 100.160156 107.671875 100.09375 107.703125 100.023438 107.734375 C 100.203125 107.769531 100.414062 107.746094 100.53125 107.84375 C 100.847656 108.105469 101.070312 107.875 101.316406 107.746094 C 101.394531 107.707031 101.453125 107.636719 101.578125 107.527344 C 101.542969 107.65625 101.523438 107.703125 101.523438 107.746094 C 101.519531 107.800781 101.535156 107.855469 101.542969 107.90625 C 101.972656 107.074219 102.277344 106.238281 102.023438 105.269531 C 101.796875 104.394531 102.070312 103.617188 102.667969 102.949219 C 103.546875 101.972656 104.363281 100.960938 104.167969 99.503906 C 104.449219 100.316406 104.355469 101.097656 103.972656 102.082031 C 103.257812 103.9375 102.804688 105.8125 103.644531 107.765625 C 103.835938 108.207031 103.886719 108.683594 103.773438 109.164062 C 103.84375 108.996094 103.917969 108.828125 104.003906 108.628906 C 104.109375 109.011719 104.210938 109.367188 104.316406 109.746094 L 104.921875 112.441406 L 150.066406 112.441406 C 150.511719 110.890625 154.117188 98.390625 155.253906 94.308594 C 155.660156 92.863281 156.25 91.414062 155.878906 89.84375 Z M 100.640625 102.53125 C 100.640625 102.53125 100.636719 102.53125 100.636719 102.53125 C 100.640625 102.527344 100.640625 102.527344 100.644531 102.523438 C 100.640625 102.527344 100.640625 102.53125 100.640625 102.53125 Z M 129.140625 50.785156 C 129.253906 50.722656 129.371094 50.65625 129.488281 50.59375 C 129.390625 50.683594 129.289062 50.773438 129.191406 50.859375 C 129.171875 50.835938 129.15625 50.8125 129.140625 50.785156 Z M 126.75 51.527344 L 127.167969 51.527344 C 127.167969 51.546875 127.167969 51.5625 127.167969 51.578125 L 126.75 51.578125 Z M 123.390625 53.257812 C 123.085938 53.613281 122.789062 53.953125 122.457031 54.339844 C 122.414062 53.628906 122.910156 53.050781 123.390625 53.257812 Z M 123.054688 53.933594 C 123.046875 53.933594 123.039062 53.933594 123.035156 53.933594 C 123.039062 53.933594 123.046875 53.933594 123.050781 53.933594 C 123.050781 53.929688 123.054688 53.933594 123.054688 53.933594 Z M 122.929688 53.941406 C 122.933594 53.941406 122.933594 53.941406 122.933594 53.941406 C 122.933594 53.976562 122.9375 54.015625 122.9375 54.050781 L 122.914062 54.074219 C 122.917969 54.058594 122.925781 54.046875 122.933594 54.03125 C 122.933594 54 122.933594 53.972656 122.929688 53.941406 Z M 122.855469 54.121094 L 122.847656 54.128906 C 122.773438 54.214844 122.695312 54.300781 122.621094 54.386719 C 122.597656 54.363281 122.574219 54.335938 122.550781 54.3125 C 122.652344 54.25 122.753906 54.183594 122.855469 54.121094 Z M 120.777344 60.875 C 120.777344 60.875 120.777344 60.875 120.777344 60.878906 C 120.773438 60.878906 120.773438 60.875 120.769531 60.875 C 120.773438 60.875 120.773438 60.875 120.777344 60.875 Z M 133.894531 73.234375 C 133.515625 73.648438 133.125 74.042969 132.773438 74.46875 C 132.554688 74.734375 132.640625 75.054688 132.921875 75.253906 C 132.984375 75.296875 133.03125 75.363281 133.085938 75.417969 C 133.011719 75.472656 132.945312 75.539062 132.867188 75.570312 C 132.296875 75.792969 132.230469 75.894531 132.347656 76.394531 C 131.683594 76.941406 133.273438 77.574219 133.804688 77.789062 C 133.640625 78.097656 130.0625 81.757812 129.089844 92.359375 C 129.023438 93.007812 128.894531 93.683594 129.003906 94.3125 C 129.136719 97.523438 129.363281 98.871094 129.308594 101.140625 C 129.273438 102.707031 129.308594 102.730469 129.148438 104.292969 C 128.152344 104.78125 127.132812 105.777344 125.980469 106.496094 C 125.867188 105.925781 129.117188 102.519531 126.867188 98.628906 C 125.816406 96.769531 121.019531 90.613281 120.730469 90.042969 C 120.492188 89.578125 120.160156 89.277344 119.628906 89.214844 C 119.539062 89.203125 119.398438 89.117188 119.382812 89.039062 C 119.179688 88.203125 119.601562 86.421875 117.957031 86.742188 C 117.695312 86.542969 118.75 81.589844 120.980469 80.925781 C 121.144531 80.859375 121.332031 80.832031 121.511719 80.828125 C 122.117188 80.800781 123.289062 80.824219 123.890625 80.773438 C 124.417969 80.734375 124.828125 80.347656 124.851562 79.820312 C 124.871094 79.472656 124.75 79.113281 124.660156 78.765625 C 124.601562 78.558594 124.714844 77.722656 124.890625 77.597656 C 125.152344 77.410156 125.257812 77.144531 125.109375 76.898438 C 125.003906 76.730469 124.726562 76.667969 124.542969 76.566406 C 124.550781 76.558594 124.640625 76.496094 124.722656 76.425781 C 125.058594 76.148438 124.996094 76.011719 124.777344 75.65625 C 124.585938 75.347656 124.539062 74.933594 124.515625 74.558594 C 124.507812 74.449219 124.78125 74.308594 124.9375 74.203125 C 125.0625 74.121094 125.214844 74.070312 125.351562 74 C 125.816406 73.765625 125.882812 73.382812 125.527344 72.996094 C 124.867188 72.273438 124.203125 71.546875 123.53125 70.832031 C 123.136719 70.410156 123.054688 69.949219 123.207031 69.394531 C 123.277344 69.136719 123.238281 68.835938 123.1875 68.5625 C 123.085938 68.003906 122.941406 67.453125 122.824219 66.941406 C 122.960938 67.042969 123.097656 67.148438 123.238281 67.253906 C 123.332031 67.320312 123.917969 67.921875 124.050781 68.753906 C 124.21875 69.652344 124.339844 70.5625 124.519531 71.457031 C 124.617188 71.929688 124.925781 72.050781 125.371094 71.855469 C 125.542969 71.777344 125.703125 71.667969 125.871094 71.570312 C 126.273438 71.335938 127.136719 71.773438 127.164062 72.230469 C 127.203125 72.816406 127.265625 72.84375 127.832031 72.613281 C 127.960938 72.558594 128.148438 72.59375 128.289062 72.644531 C 128.328125 72.65625 128.324219 72.871094 128.300781 72.984375 C 128.21875 73.351562 128.308594 73.464844 128.675781 73.449219 C 128.777344 73.445312 129.046875 73.175781 129.140625 73.203125 C 129.511719 73.296875 129.515625 73.5625 129.519531 73.867188 C 129.53125 74.480469 129.898438 74.875 130.5 74.902344 C 131.113281 74.929688 131.683594 74.792969 132.136719 74.332031 C 132.503906 73.960938 132.878906 73.601562 133.242188 73.230469 C 133.484375 72.976562 133.695312 72.953125 133.894531 73.234375 Z M 133.96875 51.476562 C 133.914062 51.460938 133.859375 51.441406 133.804688 51.425781 C 133.816406 51.40625 133.828125 51.386719 133.839844 51.367188 C 133.882812 51.402344 133.925781 51.4375 133.96875 51.476562 Z M 133.996094 51.488281 C 134.011719 51.507812 134.007812 51.5 133.996094 51.488281 Z M 133.996094 51.488281 " fill-opacity="1" fill-rule="nonzero"/></g><path fill="#9b4226" d="M 100.289062 96.472656 C 100.292969 96.480469 100.292969 96.488281 100.296875 96.496094 C 100.328125 96.511719 100.363281 96.527344 100.398438 96.542969 L 100.398438 96.53125 C 100.367188 96.515625 100.335938 96.503906 100.304688 96.492188 C 100.304688 96.492188 100.300781 96.492188 100.300781 96.496094 C 100.300781 96.492188 100.304688 96.492188 100.304688 96.492188 C 100.296875 96.484375 100.292969 96.480469 100.289062 96.472656 Z M 100.289062 96.472656 " fill-opacity="1" fill-rule="nonzero"/><path fill="#9b4226" d="M 100.085938 107.269531 C 100.09375 107.265625 100.097656 107.261719 100.101562 107.261719 C 100.101562 107.261719 100.09375 107.253906 100.09375 107.257812 C 100.09375 107.261719 100.089844 107.265625 100.085938 107.269531 Z M 100.085938 107.269531 " fill-opacity="1" fill-rule="nonzero"/></svg>