<svg xmlns="http://www.w3.org/2000/svg" xmlns:xlink="http://www.w3.org/1999/xlink" width="340" zoomAndPan="magnify" viewBox="0 0 255 155.999994" height="208" preserveAspectRatio="xMidYMid meet" version="1.0"><defs><clipPath id="5c323a53e7"><path d="M 0 0 L 254.882812 0 L 254.882812 155.929688 L 0 155.929688 Z M 0 0 " clip-rule="nonzero"/></clipPath><clipPath id="139066ce25"><path d="M 97.269531 48 L 104 48 L 104 55 L 97.269531 55 Z M 97.269531 48 " clip-rule="nonzero"/></clipPath><clipPath id="60bc44302d"><path d="M 97.269531 58 L 103 58 L 103 60 L 97.269531 60 Z M 97.269531 58 " clip-rule="nonzero"/></clipPath><clipPath id="5a849a99f9"><path d="M 106 46.75 L 109 46.75 L 109 53 L 106 53 Z M 106 46.75 " clip-rule="nonzero"/></clipPath><clipPath id="5c352c49d8"><path d="M 97.269531 51 L 127 51 L 127 108.972656 L 97.269531 108.972656 Z M 97.269531 51 " clip-rule="nonzero"/></clipPath><clipPath id="318b83a8cd"><path d="M 128 51 L 157.992188 51 L 157.992188 108.972656 L 128 108.972656 Z M 128 51 " clip-rule="nonzero"/></clipPath><clipPath id="6d856e25a5"><path d="M 151 48 L 157.992188 48 L 157.992188 55 L 151 55 Z M 151 48 " clip-rule="nonzero"/></clipPath><clipPath id="609501cb5f"><path d="M 152 58 L 157.992188 58 L 157.992188 60 L 152 60 Z M 152 58 " clip-rule="nonzero"/></clipPath><clipPath id="26a59cd68d"><path d="M 146 46.75 L 149 46.75 L 149 53 L 146 53 Z M 146 46.75 " clip-rule="nonzero"/></clipPath></defs><g clip-path="url(#5c323a53e7)"><path fill="#ffffff" d="M 0 0 L 254.882812 0 L 254.882812 155.929688 L 0 155.929688 Z M 0 0 " fill-opacity="1" fill-rule="nonzero"/><path fill="#f9f2ef" d="M 0 0 L 254.882812 0 L 254.882812 155.929688 L 0 155.929688 Z M 0 0 " fill-opacity="1" fill-rule="nonzero"/></g><g clip-path="url(#139066ce25)"><path fill="#9b4226" d="M 103.035156 54.5625 C 103.132812 54.652344 103.253906 54.695312 103.375 54.695312 C 103.511719 54.695312 103.644531 54.640625 103.742188 54.53125 C 103.929688 54.328125 103.917969 54.011719 103.714844 53.824219 L 98.4375 48.976562 C 98.234375 48.792969 97.914062 48.804688 97.730469 49.007812 C 97.542969 49.210938 97.554688 49.527344 97.757812 49.714844 Z M 103.035156 54.5625 " fill-opacity="1" fill-rule="nonzero"/></g><g clip-path="url(#60bc44302d)"><path fill="#9b4226" d="M 97.796875 59.5625 L 102.152344 59.859375 C 102.164062 59.859375 102.175781 59.863281 102.1875 59.863281 C 102.449219 59.863281 102.667969 59.660156 102.6875 59.394531 C 102.707031 59.117188 102.496094 58.878906 102.222656 58.859375 L 97.867188 58.5625 C 97.589844 58.539062 97.351562 58.75 97.332031 59.027344 C 97.3125 59.304688 97.523438 59.542969 97.796875 59.5625 Z M 97.796875 59.5625 " fill-opacity="1" fill-rule="nonzero"/></g><g clip-path="url(#5a849a99f9)"><path fill="#9b4226" d="M 108 52.378906 C 108.074219 52.582031 108.265625 52.707031 108.472656 52.707031 C 108.527344 52.707031 108.585938 52.699219 108.640625 52.675781 C 108.902344 52.582031 109.035156 52.292969 108.941406 52.035156 L 107.179688 47.195312 C 107.085938 46.9375 106.796875 46.800781 106.539062 46.898438 C 106.277344 46.992188 106.144531 47.277344 106.238281 47.539062 Z M 108 52.378906 " fill-opacity="1" fill-rule="nonzero"/></g><g clip-path="url(#5c352c49d8)"><path fill="#9b4226" d="M 124.613281 51.347656 C 124.152344 51.347656 123.71875 51.527344 123.394531 51.859375 C 123.070312 52.191406 122.898438 52.628906 122.90625 53.09375 C 122.9375 54.546875 122.886719 56.695312 122.480469 58.691406 C 121.824219 61.929688 120.160156 64.347656 119.710938 64.957031 C 119.722656 66.109375 119.613281 67.085938 119.386719 67.769531 C 118.902344 69.222656 117.167969 71.742188 114.578125 72.320312 C 114.191406 72.40625 113.800781 72.445312 113.417969 72.445312 C 111.441406 72.445312 109.582031 71.414062 108.578125 70.519531 C 107.765625 71.007812 105.550781 72.429688 104.121094 74.308594 C 103.171875 75.558594 100.769531 80.289062 97.535156 87.289062 C 97.285156 87.828125 97.269531 88.429688 97.492188 88.980469 C 97.710938 89.535156 98.136719 89.960938 98.691406 90.183594 C 99.710938 90.589844 100.867188 90.164062 101.382812 89.199219 L 107.667969 77.421875 C 107.78125 77.207031 108.035156 77.105469 108.265625 77.179688 C 108.496094 77.253906 108.640625 77.484375 108.609375 77.722656 C 108.554688 78.117188 107.308594 87.4375 105.507812 92.179688 C 104.492188 94.863281 102.285156 98.984375 100.613281 101.964844 C 100.222656 102.667969 100.195312 103.484375 100.535156 104.210938 C 100.878906 104.9375 101.527344 105.433594 102.316406 105.574219 C 103.339844 105.757812 104.371094 105.273438 104.882812 104.371094 L 111.253906 93.105469 C 111.792969 92.148438 112.917969 91.65625 113.984375 91.898438 C 115.140625 92.167969 115.957031 93.21875 115.921875 94.40625 L 115.546875 106.988281 C 115.53125 107.527344 115.730469 108.039062 116.105469 108.425781 C 116.480469 108.8125 116.984375 109.023438 117.523438 109.023438 C 118.597656 109.023438 119.464844 108.183594 119.496094 107.109375 L 120.5 75.394531 C 120.554688 73.769531 121.046875 72.21875 121.929688 70.90625 C 124.773438 66.683594 126.996094 60.847656 126.996094 57.617188 C 126.996094 55.523438 126.59375 53.71875 126.253906 52.574219 C 126.035156 51.839844 125.378906 51.347656 124.613281 51.347656 Z M 124.613281 51.347656 " fill-opacity="1" fill-rule="nonzero"/></g><path fill="#9b4226" d="M 140.636719 71.339844 C 142.707031 71.804688 145.007812 70.570312 145.976562 69.550781 C 146.664062 68.824219 147.445312 67.269531 148.0625 65.386719 C 148.804688 63.019531 149.410156 59.710938 148.070312 57.390625 C 147.339844 56.121094 146.070312 55.277344 144.304688 54.886719 C 143.738281 54.757812 143.203125 54.695312 142.695312 54.695312 C 141.605469 54.695312 140.644531 54.984375 139.828125 55.554688 C 137.628906 57.089844 136.773438 60.34375 136.441406 62.804688 C 136.203125 64.765625 136.246094 66.503906 136.5625 67.453125 C 137.007812 68.789062 138.566406 70.878906 140.636719 71.339844 Z M 140.636719 71.339844 " fill-opacity="1" fill-rule="nonzero"/><path fill="#9b4226" d="M 109.019531 69.550781 C 109.988281 70.570312 112.289062 71.800781 114.359375 71.339844 C 116.429688 70.878906 117.988281 68.789062 118.433594 67.453125 C 118.75 66.503906 118.796875 64.765625 118.554688 62.796875 C 118.222656 60.34375 117.367188 57.089844 115.167969 55.554688 C 113.96875 54.714844 112.460938 54.492188 110.695312 54.886719 C 108.925781 55.277344 107.65625 56.121094 106.925781 57.390625 C 105.585938 59.710938 106.191406 63.019531 106.933594 65.386719 C 107.550781 67.269531 108.332031 68.824219 109.019531 69.550781 Z M 109.019531 69.550781 " fill-opacity="1" fill-rule="nonzero"/><g clip-path="url(#318b83a8cd)"><path fill="#9b4226" d="M 150.875 74.308594 C 149.445312 72.429688 147.230469 71.007812 146.417969 70.519531 C 145.414062 71.414062 143.554688 72.445312 141.578125 72.445312 C 141.195312 72.445312 140.808594 72.40625 140.417969 72.320312 C 137.828125 71.742188 136.09375 69.222656 135.609375 67.769531 C 135.382812 67.085938 135.273438 66.109375 135.289062 64.953125 C 134.835938 64.34375 133.171875 61.929688 132.515625 58.691406 C 132.109375 56.695312 132.058594 54.546875 132.089844 53.09375 C 132.097656 52.628906 131.925781 52.191406 131.601562 51.859375 C 131.277344 51.527344 130.84375 51.347656 130.382812 51.347656 C 129.621094 51.347656 128.960938 51.839844 128.742188 52.574219 C 128.402344 53.71875 128 55.523438 128 57.617188 C 128 60.847656 130.226562 66.683594 133.066406 70.90625 C 133.949219 72.21875 134.445312 73.769531 134.496094 75.394531 L 135.5 107.109375 C 135.535156 108.183594 136.402344 109.023438 137.472656 109.023438 C 138.011719 109.023438 138.515625 108.808594 138.890625 108.425781 C 139.265625 108.039062 139.464844 107.527344 139.449219 106.988281 L 139.078125 94.40625 C 139.042969 93.21875 139.855469 92.164062 141.011719 91.898438 C 142.078125 91.65625 143.203125 92.148438 143.742188 93.101562 L 150.113281 104.371094 C 150.625 105.273438 151.65625 105.757812 152.679688 105.574219 C 153.46875 105.433594 154.117188 104.9375 154.460938 104.210938 C 154.804688 103.484375 154.773438 102.667969 154.382812 101.964844 C 152.710938 98.984375 150.507812 94.863281 149.488281 92.179688 C 147.6875 87.4375 146.441406 78.117188 146.390625 77.722656 C 146.355469 77.484375 146.5 77.253906 146.730469 77.179688 C 146.964844 77.105469 147.214844 77.207031 147.328125 77.421875 L 153.613281 89.199219 C 154.128906 90.164062 155.289062 90.589844 156.304688 90.183594 C 156.859375 89.960938 157.285156 89.535156 157.507812 88.980469 C 157.726562 88.429688 157.710938 87.828125 157.460938 87.285156 C 154.226562 80.289062 151.824219 75.558594 150.875 74.308594 Z M 150.875 74.308594 " fill-opacity="1" fill-rule="nonzero"/></g><g clip-path="url(#6d856e25a5)"><path fill="#9b4226" d="M 151.621094 54.695312 C 151.742188 54.695312 151.863281 54.652344 151.960938 54.5625 L 157.238281 49.714844 C 157.441406 49.527344 157.457031 49.210938 157.269531 49.007812 C 157.082031 48.804688 156.765625 48.792969 156.558594 48.976562 L 151.28125 53.824219 C 151.078125 54.011719 151.066406 54.328125 151.253906 54.53125 C 151.351562 54.640625 151.488281 54.695312 151.621094 54.695312 Z M 151.621094 54.695312 " fill-opacity="1" fill-rule="nonzero"/></g><g clip-path="url(#609501cb5f)"><path fill="#9b4226" d="M 152.773438 58.859375 C 152.5 58.878906 152.289062 59.117188 152.308594 59.394531 C 152.328125 59.660156 152.546875 59.863281 152.808594 59.863281 C 152.820312 59.863281 152.832031 59.859375 152.84375 59.859375 L 157.199219 59.5625 C 157.472656 59.542969 157.683594 59.304688 157.664062 59.027344 C 157.644531 58.75 157.40625 58.539062 157.128906 58.5625 Z M 152.773438 58.859375 " fill-opacity="1" fill-rule="nonzero"/></g><g clip-path="url(#26a59cd68d)"><path fill="#9b4226" d="M 146.355469 52.675781 C 146.410156 52.699219 146.46875 52.707031 146.527344 52.707031 C 146.730469 52.707031 146.921875 52.582031 146.996094 52.378906 L 148.757812 47.539062 C 148.851562 47.277344 148.71875 46.992188 148.457031 46.898438 C 148.199219 46.800781 147.910156 46.9375 147.816406 47.195312 L 146.054688 52.035156 C 145.960938 52.292969 146.09375 52.582031 146.355469 52.675781 Z M 146.355469 52.675781 " fill-opacity="1" fill-rule="nonzero"/></g></svg>