<svg xmlns="http://www.w3.org/2000/svg" xmlns:xlink="http://www.w3.org/1999/xlink" width="340" zoomAndPan="magnify" viewBox="0 0 255 155.999994" height="208" preserveAspectRatio="xMidYMid meet" version="1.0"><defs><clipPath id="ff0ba626f5"><path d="M 0 0 L 254.882812 0 L 254.882812 155.929688 L 0 155.929688 Z M 0 0 " clip-rule="nonzero"/></clipPath><clipPath id="7b90185506"><path d="M 101.476562 46.75 L 161.449219 46.75 L 161.449219 113 L 101.476562 113 Z M 101.476562 46.75 " clip-rule="nonzero"/></clipPath><clipPath id="60f46bbc00"><path d="M 141 117 L 142 117 L 142 117.96875 L 141 117.96875 Z M 141 117 " clip-rule="nonzero"/></clipPath></defs><g clip-path="url(#ff0ba626f5)"><path fill="#ffffff" d="M 0 0 L 254.882812 0 L 254.882812 155.929688 L 0 155.929688 Z M 0 0 " fill-opacity="1" fill-rule="nonzero"/><path fill="#f9f2ef" d="M 0 0 L 254.882812 0 L 254.882812 155.929688 L 0 155.929688 Z M 0 0 " fill-opacity="1" fill-rule="nonzero"/></g><g clip-path="url(#7b90185506)"><path fill="#9b4226" d="M 161.023438 105.488281 C 160.847656 105.277344 160.699219 105.042969 160.527344 104.824219 C 160.074219 104.242188 159.59375 103.679688 159.011719 103.21875 C 158.707031 102.976562 158.382812 102.746094 157.992188 102.703125 C 157.488281 102.644531 157.148438 102.359375 156.839844 102.007812 C 156.429688 101.542969 156.195312 100.984375 156.03125 100.394531 C 155.8125 99.601562 155.609375 98.800781 155.367188 98.011719 C 154.703125 95.839844 153.652344 93.890625 152.070312 92.242188 C 151.832031 91.996094 151.597656 91.75 151.367188 91.496094 C 150.40625 90.414062 149.699219 89.191406 149.417969 87.761719 C 149.226562 86.804688 149.105469 85.828125 148.960938 84.859375 C 148.929688 84.660156 148.8125 84.429688 149.058594 84.261719 C 149.089844 84.238281 149.089844 84.160156 149.09375 84.101562 C 149.121094 83.917969 149.148438 83.734375 149.171875 83.546875 C 149.386719 81.851562 149.339844 80.160156 149.074219 78.476562 C 148.640625 75.707031 147.636719 73.171875 145.9375 70.929688 C 145.734375 70.660156 145.691406 70.402344 145.832031 70.105469 C 145.878906 70.003906 145.910156 69.890625 145.972656 69.808594 C 146.230469 69.480469 146.472656 69.132812 146.769531 68.84375 C 147.253906 68.371094 147.597656 67.820312 147.839844 67.195312 C 148.253906 66.109375 148.484375 64.980469 148.632812 63.828125 C 148.667969 63.574219 148.703125 63.316406 148.746094 62.980469 C 148.84375 63.144531 148.902344 63.234375 148.957031 63.328125 C 149.179688 63.6875 149.4375 64.015625 149.8125 64.230469 C 150.207031 64.453125 150.613281 64.460938 151.078125 64.246094 C 150.667969 63.953125 150.351562 63.636719 150.160156 63.195312 C 150.449219 63.246094 150.710938 63.292969 150.996094 63.34375 C 150.976562 63.273438 150.980469 63.242188 150.964844 63.234375 C 150.890625 63.1875 150.8125 63.148438 150.738281 63.101562 C 150.125 62.726562 149.660156 62.246094 149.546875 61.492188 C 149.433594 60.742188 149.28125 59.996094 149.160156 59.246094 C 148.859375 57.363281 148.519531 55.492188 148.058594 53.644531 C 147.726562 52.316406 147.351562 51.007812 146.792969 49.753906 C 146.53125 49.167969 146.230469 48.605469 145.847656 48.09375 C 145.523438 47.664062 145.144531 47.289062 144.625 47.121094 C 143.496094 46.75 142.402344 46.847656 141.390625 47.488281 C 140.53125 48.035156 139.9375 48.828125 139.496094 49.734375 C 139.324219 50.09375 139.246094 50.484375 139.289062 50.886719 C 139.359375 51.523438 139.53125 52.117188 139.949219 52.621094 C 139.980469 52.664062 140.003906 52.710938 140.042969 52.777344 C 139.890625 52.832031 139.757812 52.878906 139.621094 52.929688 C 139.628906 52.945312 139.632812 52.964844 139.636719 52.980469 L 140.140625 52.980469 C 140.125 53.132812 140.128906 53.265625 140.101562 53.390625 C 140.035156 53.667969 139.949219 53.941406 139.878906 54.21875 C 139.820312 54.453125 139.859375 54.511719 140.074219 54.597656 C 140.199219 54.648438 140.304688 54.648438 140.417969 54.570312 C 140.503906 54.507812 140.605469 54.464844 140.703125 54.414062 C 140.792969 54.496094 140.890625 54.566406 140.957031 54.652344 C 140.988281 54.648438 141.019531 54.652344 141.046875 54.667969 C 141.109375 54.648438 141.179688 54.652344 141.226562 54.695312 C 141.414062 54.847656 141.523438 55.050781 141.679688 55.226562 C 141.816406 55.378906 142.011719 55.4375 142.179688 55.546875 C 142.203125 55.5625 142.222656 55.574219 142.242188 55.59375 C 142.316406 55.59375 142.386719 55.59375 142.460938 55.597656 C 142.503906 55.601562 142.535156 55.617188 142.5625 55.636719 C 142.625 55.625 142.6875 55.613281 142.75 55.613281 C 142.800781 55.550781 142.890625 55.507812 142.964844 55.566406 C 143.289062 55.808594 143.484375 56.15625 143.515625 56.558594 C 143.523438 56.660156 143.429688 56.71875 143.34375 56.71875 C 143.253906 56.78125 143.1875 56.820312 143.132812 56.875 C 142.8125 57.175781 142.488281 57.476562 142.175781 57.785156 C 141.488281 58.46875 140.78125 59.132812 140.191406 59.910156 C 139.890625 60.300781 139.609375 60.710938 139.351562 61.132812 C 139.136719 61.488281 139.058594 61.886719 139.066406 62.304688 C 139.070312 62.804688 139.148438 63.289062 139.253906 63.777344 C 139.496094 64.925781 139.738281 66.078125 139.96875 67.230469 C 140.03125 67.539062 140.054688 67.859375 140.09375 68.164062 C 140.007812 68.21875 139.953125 68.253906 139.894531 68.285156 C 138.5625 68.988281 137.226562 69.6875 135.890625 70.390625 C 135.539062 70.578125 135.160156 70.601562 134.742188 70.601562 C 134.859375 70.339844 134.984375 70.109375 135.074219 69.863281 C 135.160156 69.621094 135.332031 69.382812 135.214844 69.03125 C 135.089844 69.167969 134.996094 69.261719 134.898438 69.367188 C 134.546875 69.257812 134.277344 69.578125 133.976562 69.578125 C 133.875 69.378906 133.808594 69.1875 133.6875 69.039062 C 133.601562 68.929688 133.546875 68.847656 133.566406 68.695312 C 133.601562 68.472656 133.46875 68.359375 133.25 68.40625 C 133.15625 68.425781 133.0625 68.472656 132.984375 68.53125 C 132.84375 68.632812 132.84375 68.71875 132.949219 68.863281 C 133.011719 68.949219 133.097656 69.035156 133.121094 69.132812 C 133.167969 69.320312 133.179688 69.515625 133.210938 69.742188 C 133.109375 69.757812 133.011719 69.777344 132.90625 69.792969 C 132.871094 69.703125 132.84375 69.644531 132.824219 69.582031 C 132.671875 69.160156 132.523438 68.730469 132.359375 68.3125 C 132.324219 68.222656 132.242188 68.101562 132.160156 68.082031 C 131.65625 67.96875 131.1875 68.078125 130.722656 68.375 C 131.066406 69.320312 131.402344 70.253906 131.746094 71.203125 C 131.941406 71.136719 132.101562 71.082031 132.261719 71.027344 C 132.222656 71.183594 132.152344 71.292969 132.082031 71.398438 C 131.878906 71.699219 131.671875 71.996094 131.480469 72.304688 C 131.230469 72.707031 131.003906 73.125 130.75 73.523438 C 130.5625 73.820312 130.375 74.128906 130.128906 74.375 C 128.972656 75.539062 127.773438 76.664062 126.433594 77.625 C 126.140625 77.832031 125.816406 78 125.5 78.179688 C 125.28125 78.304688 125.054688 78.289062 124.839844 78.152344 C 124.765625 78.105469 124.6875 78.0625 124.617188 78.011719 C 123.667969 77.257812 122.71875 76.507812 121.773438 75.75 C 121.660156 75.65625 121.566406 75.519531 121.5 75.386719 C 121.378906 75.152344 121.292969 74.898438 121.1875 74.65625 C 121.125 74.515625 121.121094 74.394531 121.226562 74.261719 C 121.316406 74.148438 121.371094 74.007812 121.457031 73.851562 C 121.292969 73.785156 121.175781 73.734375 121.054688 73.6875 C 120.890625 73.628906 120.792969 73.523438 120.808594 73.34375 C 120.835938 73.027344 120.835938 72.703125 120.90625 72.394531 C 121.035156 71.855469 121.429688 71.566406 121.984375 71.542969 C 122.105469 71.539062 122.226562 71.546875 122.347656 71.535156 C 122.730469 71.511719 122.878906 71.335938 122.839844 70.960938 C 122.832031 70.894531 122.808594 70.832031 122.796875 70.765625 C 122.726562 70.445312 122.65625 70.125 122.578125 69.800781 C 122.554688 69.699219 122.523438 69.597656 122.496094 69.492188 C 122.34375 69.5 122.222656 69.507812 122.042969 69.515625 C 122.121094 69.417969 122.152344 69.351562 122.203125 69.320312 C 122.367188 69.214844 122.390625 69.074219 122.382812 68.894531 C 122.371094 68.558594 122.378906 68.554688 122.730469 68.480469 C 123.105469 68.398438 123.246094 68.019531 123.003906 67.726562 C 122.921875 67.625 122.828125 67.53125 122.738281 67.4375 C 122.480469 67.179688 122.214844 66.929688 121.957031 66.671875 C 121.820312 66.539062 121.71875 66.390625 121.730469 66.179688 C 121.769531 65.425781 121.40625 64.851562 120.886719 64.355469 C 120.789062 64.257812 120.683594 64.167969 120.578125 64.078125 C 120.636719 63.996094 120.679688 63.941406 120.710938 63.886719 C 120.972656 63.453125 120.824219 63.015625 120.347656 62.859375 C 120.191406 62.808594 120.023438 62.789062 119.859375 62.78125 C 118.863281 62.722656 117.882812 62.875 116.910156 63.078125 C 115.984375 63.269531 115.117188 63.597656 114.335938 64.140625 C 114.097656 64.308594 113.878906 64.503906 113.777344 64.78125 C 113.421875 65.71875 113.265625 66.667969 113.652344 67.644531 C 114.007812 68.539062 114.566406 69.296875 115.214844 69.992188 C 115.386719 70.179688 115.574219 70.355469 115.742188 70.542969 C 115.980469 70.796875 116.101562 71.101562 116.113281 71.480469 C 116.003906 71.4375 115.921875 71.410156 115.835938 71.382812 C 115.75 71.355469 115.660156 71.335938 115.582031 71.3125 C 115.558594 71.359375 115.546875 71.371094 115.546875 71.378906 C 115.542969 71.554688 115.535156 71.730469 115.539062 71.90625 C 115.546875 72.046875 115.503906 72.152344 115.410156 72.265625 C 114.640625 73.167969 114.003906 74.152344 113.566406 75.261719 C 113.328125 75.867188 113.160156 76.492188 113.15625 77.15625 C 113.152344 78.019531 113.304688 78.867188 113.445312 79.710938 C 113.765625 81.574219 114.125 83.433594 114.453125 85.296875 C 114.601562 86.152344 114.730469 87.011719 114.75 87.882812 C 114.785156 89.398438 114.582031 90.894531 114.375 92.386719 C 114.308594 92.890625 114.257812 93.394531 114.210938 93.898438 C 114.203125 93.992188 114.195312 94.152344 114.246094 94.179688 C 114.476562 94.304688 114.441406 94.535156 114.492188 94.726562 C 114.949219 96.441406 115.664062 98.023438 116.902344 99.328125 C 116.988281 99.417969 117.050781 99.550781 117.074219 99.671875 C 117.117188 99.921875 117.121094 100.175781 117.152344 100.425781 C 117.242188 101.1875 117.238281 101.941406 116.976562 102.679688 C 116.808594 103.152344 116.742188 103.648438 116.808594 104.144531 C 116.90625 104.859375 116.789062 105.550781 116.652344 106.238281 C 116.601562 106.480469 116.566406 106.738281 116.378906 106.964844 C 115.484375 106.726562 114.589844 106.503906 113.703125 106.246094 C 111.992188 105.753906 110.289062 105.226562 108.570312 104.753906 C 107.875 104.558594 107.152344 104.453125 106.4375 104.324219 C 106.113281 104.265625 106.074219 104.289062 105.9375 104.605469 C 105.847656 104.800781 105.792969 105.015625 105.714844 105.246094 C 105.550781 105.230469 105.386719 105.226562 105.222656 105.207031 C 104.609375 105.136719 104.019531 104.953125 103.4375 104.757812 C 102.8125 104.550781 102.1875 104.546875 101.5625 104.734375 C 101.480469 105.039062 101.492188 107.4375 101.578125 107.714844 L 102.300781 107.714844 C 102.246094 107.871094 102.203125 107.992188 102.160156 108.109375 C 101.902344 108.785156 101.691406 109.480469 101.804688 110.203125 C 101.898438 110.789062 102.058594 111.363281 102.222656 111.933594 C 102.289062 112.171875 102.421875 112.398438 102.5625 112.605469 C 102.808594 112.976562 103.25 113.085938 103.707031 112.910156 C 103.714844 112.84375 103.726562 112.765625 103.738281 112.691406 C 103.84375 111.851562 103.9375 111.007812 104.066406 110.167969 C 104.117188 109.824219 104.222656 109.480469 104.335938 109.152344 C 104.4375 108.84375 104.660156 108.625 105 108.574219 C 105.183594 108.550781 105.375 108.570312 105.5625 108.570312 C 105.695312 108.566406 105.765625 108.640625 105.792969 108.757812 C 105.8125 108.824219 105.824219 108.886719 105.832031 108.953125 C 105.855469 109.152344 105.96875 109.25 106.167969 109.296875 C 109.054688 109.988281 111.933594 110.695312 114.824219 111.375 C 115.527344 111.542969 116.246094 111.640625 116.964844 111.734375 C 117.554688 111.8125 118.152344 111.828125 118.742188 111.894531 C 119.558594 111.984375 120.324219 111.910156 120.949219 111.292969 C 121.140625 111.363281 121.320312 111.4375 121.507812 111.5 C 121.699219 111.5625 121.875 111.699219 122.109375 111.660156 C 122.164062 111.5 122.214844 111.34375 122.28125 111.144531 C 122.402344 111.222656 122.492188 111.285156 122.585938 111.339844 C 122.996094 111.574219 123.398438 111.816406 123.816406 112.039062 C 124.121094 112.203125 124.460938 112.265625 124.804688 112.269531 C 126.019531 112.28125 127.226562 112.234375 128.429688 112.078125 C 129.078125 111.992188 129.207031 111.820312 129.066406 111.1875 C 129.0625 111.175781 129.0625 111.164062 129.0625 111.152344 C 129.046875 110.96875 128.933594 110.882812 128.761719 110.863281 C 128.585938 110.84375 128.410156 110.832031 128.238281 110.792969 C 127.574219 110.636719 126.90625 110.5 126.253906 110.304688 C 125.976562 110.222656 125.726562 110.039062 125.488281 109.863281 C 125.285156 109.714844 125.152344 109.5 125.195312 109.191406 C 125.402344 109.285156 125.585938 109.367188 125.789062 109.460938 C 125.851562 109.332031 125.902344 109.234375 125.949219 109.136719 C 126.355469 108.21875 126.820312 107.332031 127.355469 106.484375 C 127.863281 105.6875 128.464844 104.988281 129.199219 104.382812 C 130.289062 103.488281 131.347656 102.554688 132.398438 101.617188 C 133.082031 101.003906 133.660156 100.289062 134.167969 99.527344 C 134.507812 99.019531 134.746094 98.464844 134.851562 97.859375 C 134.957031 97.261719 134.847656 96.738281 134.363281 96.339844 C 134.046875 96.082031 133.730469 95.820312 133.386719 95.605469 C 132.464844 95.019531 131.480469 94.550781 130.476562 94.132812 C 129.183594 93.59375 127.898438 93.046875 126.535156 92.707031 C 126.347656 92.660156 126.164062 92.578125 125.976562 92.515625 C 125.804688 92.457031 125.699219 92.347656 125.648438 92.171875 C 125.621094 92.078125 125.582031 91.984375 125.554688 91.890625 C 124.789062 89.59375 124.09375 87.273438 123.4375 84.945312 C 123.226562 84.207031 123.113281 83.464844 123.105469 82.699219 C 123.105469 82.558594 123.105469 82.421875 123.105469 82.257812 C 123.230469 82.292969 123.324219 82.320312 123.417969 82.347656 C 124.132812 82.574219 124.859375 82.734375 125.601562 82.832031 C 125.722656 82.851562 125.902344 82.84375 125.964844 82.769531 C 126.113281 82.59375 126.261719 82.578125 126.460938 82.632812 C 126.574219 82.664062 126.703125 82.652344 126.824219 82.65625 C 127.542969 82.6875 127.554688 82.691406 127.933594 82.066406 C 128.847656 80.558594 129.78125 79.0625 130.652344 77.53125 C 131.222656 76.527344 131.992188 75.738281 132.933594 75.101562 C 132.996094 75.058594 133.070312 74.996094 133.136719 75 C 133.394531 75.011719 133.546875 74.851562 133.675781 74.671875 C 133.957031 74.273438 134.347656 74.070312 134.8125 73.949219 C 135.6875 73.714844 135.703125 73.679688 136.117188 72.878906 C 136.167969 72.78125 136.210938 72.679688 136.261719 72.578125 C 136.378906 72.34375 136.503906 72.109375 136.617188 71.875 C 136.710938 71.683594 136.855469 71.605469 137.070312 71.609375 C 137.742188 71.621094 138.414062 71.617188 139.085938 71.621094 C 139.128906 71.621094 139.171875 71.636719 139.242188 71.648438 C 139.203125 71.785156 139.175781 71.914062 139.136719 72.035156 C 138.425781 74.085938 138.03125 76.203125 137.902344 78.367188 C 137.808594 79.972656 137.851562 81.582031 138.03125 83.183594 C 138.203125 84.726562 138.476562 86.253906 138.824219 87.765625 C 138.855469 87.914062 138.90625 88.054688 138.957031 88.226562 C 139.75 87.90625 140.507812 87.59375 141.296875 87.328125 C 141.351562 87.503906 141.402344 87.636719 141.441406 87.773438 C 141.800781 88.988281 142.152344 90.199219 142.519531 91.414062 C 142.707031 92.035156 142.96875 92.636719 143.101562 93.269531 C 143.304688 94.257812 143.457031 95.261719 143.578125 96.265625 C 143.714844 97.367188 143.824219 98.476562 143.890625 99.582031 C 143.96875 100.882812 143.972656 102.179688 143.847656 103.480469 C 143.742188 104.585938 143.589844 105.6875 143.296875 106.761719 C 143.003906 107.84375 142.585938 108.863281 141.9375 109.789062 C 141.453125 110.480469 140.851562 110.964844 139.996094 111.089844 C 139.8125 111.113281 139.628906 111.148438 139.445312 111.1875 C 139.339844 111.214844 139.226562 111.242188 139.140625 111.304688 C 138.839844 111.523438 138.863281 111.84375 139.191406 112.007812 C 139.378906 112.097656 139.582031 112.160156 139.785156 112.203125 C 140.523438 112.34375 141.273438 112.363281 142.019531 112.332031 C 142.386719 112.316406 142.730469 112.214844 143.042969 111.996094 C 143.964844 111.351562 144.742188 110.570312 145.3125 109.589844 C 145.355469 109.515625 145.40625 109.453125 145.453125 109.382812 C 145.46875 109.390625 145.488281 109.394531 145.503906 109.398438 L 145.503906 112.261719 C 145.773438 112.179688 146 112.113281 146.230469 112.042969 C 146.21875 111.835938 146.203125 111.660156 146.191406 111.488281 C 146.140625 110.816406 146.28125 110.171875 146.453125 109.53125 C 146.703125 108.605469 146.796875 107.671875 146.570312 106.722656 C 146.46875 106.308594 146.476562 105.890625 146.554688 105.476562 C 146.707031 104.6875 146.851562 103.898438 147.03125 103.113281 C 147.308594 101.910156 147.476562 100.691406 147.65625 99.46875 C 147.898438 97.828125 147.988281 96.183594 147.707031 94.535156 C 147.671875 94.347656 147.65625 94.15625 147.632812 93.964844 C 147.660156 93.945312 147.6875 93.925781 147.714844 93.90625 C 147.761719 93.980469 147.800781 94.054688 147.855469 94.125 C 148.699219 95.144531 149.492188 96.199219 150.199219 97.320312 C 150.972656 98.539062 151.738281 99.761719 152.5625 100.945312 C 153.472656 102.253906 154.46875 103.507812 155.398438 104.808594 C 156.15625 105.875 156.886719 106.964844 157.507812 108.121094 C 157.898438 108.847656 158.015625 109.617188 157.867188 110.425781 C 157.800781 110.78125 157.703125 111.132812 157.617188 111.484375 C 157.5625 111.722656 157.59375 111.945312 157.75 112.140625 C 157.875 112.289062 157.96875 112.3125 158.117188 112.1875 C 158.257812 112.070312 158.402344 111.9375 158.5 111.78125 C 158.910156 111.121094 159.3125 110.449219 159.699219 109.769531 C 159.980469 109.277344 160.039062 108.730469 159.960938 108.171875 C 159.832031 107.234375 159.542969 106.351562 159.152344 105.496094 C 159.125 105.433594 159.113281 105.367188 159.078125 105.25 C 159.695312 105.613281 160.261719 105.949219 160.84375 106.292969 C 160.921875 106.175781 160.972656 106.082031 161.039062 105.996094 C 161.175781 105.816406 161.164062 105.660156 161.023438 105.488281 Z M 121.898438 107.804688 C 121.878906 107.792969 121.863281 107.785156 121.847656 107.777344 C 121.871094 107.628906 121.898438 107.476562 121.933594 107.300781 C 122.007812 107.320312 122.070312 107.335938 122.1875 107.363281 C 122.074219 107.53125 121.984375 107.664062 121.898438 107.804688 Z M 123.117188 99.746094 C 123.148438 99.421875 123.175781 99.414062 123.503906 99.382812 C 124.355469 99.304688 125.207031 99.222656 126.058594 99.132812 C 126.820312 99.054688 127.582031 98.960938 128.402344 98.871094 C 126.285156 101.421875 124.191406 103.945312 122.097656 106.46875 C 122.085938 106.457031 122.070312 106.449219 122.054688 106.4375 C 122.117188 105.917969 122.183594 105.398438 122.246094 104.875 C 122.332031 104.175781 122.40625 103.476562 122.507812 102.78125 C 122.558594 102.445312 122.640625 102.113281 122.730469 101.785156 C 122.910156 101.113281 123.054688 100.4375 123.117188 99.746094 Z M 133.523438 69.667969 C 133.476562 69.53125 133.429688 69.390625 133.382812 69.253906 C 133.414062 69.242188 133.441406 69.230469 133.46875 69.222656 C 133.527344 69.355469 133.582031 69.492188 133.636719 69.628906 C 133.597656 69.640625 133.5625 69.65625 133.523438 69.667969 Z M 134.300781 72.566406 C 134.269531 72.550781 134.238281 72.535156 134.207031 72.519531 C 134.25 72.441406 134.289062 72.367188 134.328125 72.289062 C 134.351562 72.300781 134.375 72.308594 134.402344 72.320312 C 134.367188 72.402344 134.335938 72.484375 134.300781 72.566406 Z M 134.300781 72.566406 " fill-opacity="1" fill-rule="nonzero"/></g><g clip-path="url(#60f46bbc00)"><path fill="#9b4226" d="M 141.828125 117.875 C 141.828125 117.816406 141.828125 117.757812 141.828125 117.699219 C 141.832031 117.699219 141.839844 117.699219 141.84375 117.699219 C 141.84375 117.757812 141.84375 117.816406 141.84375 117.878906 C 141.839844 117.875 141.832031 117.875 141.828125 117.875 Z M 141.828125 117.875 " fill-opacity="1" fill-rule="nonzero"/></g><path fill="#9b4226" d="M 140.949219 54.660156 C 140.949219 54.660156 142.304688 56.078125 142.746094 55.621094 C 142.546875 54.855469 142.464844 54.671875 142.453125 54.636719 C 142.441406 54.601562 141.804688 54.238281 141.730469 54.226562 C 141.660156 54.214844 141.082031 54.226562 141.082031 54.226562 Z M 140.949219 54.660156 " fill-opacity="1" fill-rule="nonzero"/><path fill="#9b4226" d="M 142.878906 55.546875 C 142.878906 55.546875 143.519531 55.921875 143.316406 56.859375 C 144.316406 56.984375 144.292969 56.730469 144.339844 56.652344 C 144.386719 56.574219 144.878906 55.335938 144.769531 55.292969 C 144.65625 55.253906 143.917969 54.984375 143.769531 55 C 143.617188 55.015625 143.464844 54.984375 143.394531 55 C 143.324219 55.015625 142.746094 54.996094 142.746094 54.996094 L 142.582031 55.027344 L 142.761719 55.390625 Z M 142.878906 55.546875 " fill-opacity="1" fill-rule="nonzero"/></svg>